<svg width="56" height="40" viewBox="0 0 56 40" fill="none" xmlns="http://www.w3.org/2000/svg">
<path d="M47.6465 32.9756C46.7629 32.9729 45.8819 32.8625 45.0278 32.6389C39.3512 31.1813 23.9196 23.7508 23.2644 23.4356C22.7148 23.1716 22.4831 22.5115 22.7498 21.9619C23.0138 21.4123 23.6739 21.1806 24.2235 21.4474C24.3825 21.5228 40.1107 29.1043 45.5772 30.5023C47.6167 31.025 49.6292 30.7852 51.5582 29.7884C51.8896 29.616 52.2129 29.4247 52.5227 29.2172L28.2702 21.043C27.6909 20.849 27.3811 20.224 27.5751 19.6448C27.7718 19.0682 28.3968 18.7584 28.9733 18.9524L55.1039 27.7598C55.4541 27.8783 55.7235 28.1666 55.8178 28.5249C55.9121 28.8859 55.8178 29.2685 55.57 29.546C55.5242 29.5945 54.4654 30.7557 52.6549 31.7094C51.0546 32.55 49.3573 32.9756 47.6465 32.9756Z" fill="white"/>
<path d="M22.8015 23.7213C22.4001 23.7213 21.9986 23.6566 21.616 23.5273C19.7813 22.9076 18.7279 20.9813 19.1967 19.1008C19.6655 17.2203 21.4975 16.016 23.4104 16.3313C25.3232 16.6438 26.673 18.3761 26.514 20.3078C26.355 22.2368 24.7413 23.7239 22.8015 23.7213ZM22.3192 21.434V21.4366C22.9012 21.6333 23.545 21.4609 23.9492 21.0002C24.3533 20.5368 24.4395 19.8768 24.1674 19.3271C23.8953 18.7775 23.3188 18.4435 22.7072 18.4865C22.0929 18.527 21.5649 18.9338 21.3709 19.5157C21.1042 20.3078 21.5299 21.1672 22.3219 21.4366L22.3192 21.434Z" fill="white"/>
<path d="M12.9003 16.0025C12.55 16.0025 12.2052 15.9459 11.8765 15.8328L8.23942 14.5988C5.45911 13.6559 3.97192 10.6385 4.91487 7.85818C5.37827 6.48686 6.36972 5.35804 7.66828 4.71683C8.96685 4.07563 10.4675 3.97596 11.8388 4.44203C15.4382 5.66782 17.3672 9.5797 16.1467 13.1818L15.9285 13.8365C15.4867 15.1324 14.2689 16.0025 12.9003 16.0025ZM10.0795 6.35781C8.68938 6.3605 7.45275 7.2469 7.00286 8.56697C6.73884 9.34557 6.79542 10.1996 7.15912 10.9405C7.52283 11.6787 8.1667 12.2417 8.94806 12.5084L12.5851 13.7424C13.0997 13.9175 13.6601 13.64 13.8352 13.1254L14.0561 12.4707L14.0588 12.4734C14.8859 10.0245 13.5765 7.36542 11.1303 6.53289C10.7908 6.41705 10.4378 6.35781 10.0795 6.35781Z" fill="white"/>
<path d="M14.6597 21.1029C14.5384 21.1029 14.4172 21.0813 14.304 21.0436L6.90357 18.53C1.95982 16.8516 -0.694134 11.4662 0.9819 6.52244C2.68731 1.50333 8.15337 -1.19386 13.173 0.511892C15.9452 1.45484 18.2272 3.45923 19.523 6.086C20.8189 8.71277 21.0183 11.7436 20.0807 14.5189L20.0511 14.6078L20.0484 14.6051C19.8571 15.1789 20.1238 15.8067 20.6707 16.068L21.9639 16.6877C22.2306 16.8116 22.4354 17.0379 22.5351 17.3154C22.6347 17.5929 22.6186 17.8973 22.492 18.1641C22.3653 18.4308 22.1363 18.6328 21.8588 18.7298C21.5813 18.8268 21.2742 18.8079 21.0102 18.6786L19.717 18.059C18.1625 17.3127 17.4081 15.5265 17.9604 13.8912L17.99 13.8023L17.9927 13.8049C19.5499 9.18455 17.0794 4.17613 12.4644 2.60294C8.5929 1.29094 4.39009 3.36271 3.07277 7.2341C1.78766 11.0301 3.82172 15.1497 7.61505 16.4429L14.9886 18.9457C15.5086 19.1101 15.8319 19.6273 15.7484 20.1661C15.6676 20.705 15.2042 21.1037 14.66 21.1037L14.6597 21.1029Z" fill="white"/>
<path d="M21.5408 18.8081C20.9292 18.8081 20.4362 18.3151 20.4362 17.7035C20.4362 17.0946 20.9292 16.6016 21.5408 16.6016C22.1496 16.6016 22.6427 17.0946 22.6427 17.7035C22.6427 18.3151 22.1497 18.8081 21.5408 18.8081Z" fill="white"/>
<path d="M21.9636 23.5825C21.8423 23.5825 21.7238 23.5637 21.6079 23.5232L21.1311 23.3616C20.5545 23.1649 20.2447 22.5399 20.4414 21.9607C20.6381 21.3841 21.2631 21.0771 21.8396 21.271L22.3165 21.4326L22.3192 21.4353C22.8283 21.6078 23.1409 22.1277 23.052 22.6584C22.9631 23.1919 22.5024 23.5825 21.9636 23.5825Z" fill="white"/>
<path d="M25.1479 22.2747C24.6118 22.2747 24.1538 21.8948 24.0595 21.3668C23.9625 20.8414 24.2588 20.3215 24.7599 20.1355L24.795 20.1221L27.446 19.2303L52.5227 10.7788C52.2129 10.5686 51.8896 10.3774 51.5582 10.2076C49.6265 9.21081 47.6168 8.97101 45.5773 9.49366C40.1109 10.8946 24.3829 18.4707 24.2235 18.5486C23.6739 18.8154 23.0166 18.5837 22.7499 18.0368C22.4858 17.4872 22.7148 16.8271 23.2644 16.5631C23.9191 16.2479 39.3509 8.81507 45.0278 7.35706C47.6008 6.697 50.2383 7.0203 52.6524 8.29194C54.4629 9.24565 55.5217 10.4041 55.5675 10.4553V10.4526C55.8181 10.7301 55.9124 11.1127 55.8181 11.471C55.7238 11.832 55.4544 12.1203 55.1014 12.2388L28.1494 21.3207L25.5065 22.2125C25.3906 22.2529 25.2691 22.2747 25.1479 22.2747Z" fill="white"/>
<path d="M10.0876 35.8441C7.74914 35.8414 5.66929 34.3515 4.9149 32.137C4.45959 30.8007 4.55658 29.3405 5.17892 28.077C5.80396 26.8108 6.90317 25.8462 8.23945 25.3937L11.8765 24.1597C13.5469 23.594 15.3573 24.4911 15.9258 26.1587L16.1467 26.8134C17.3698 30.4182 15.4409 34.3297 11.8388 35.5532C11.273 35.7445 10.683 35.8414 10.0876 35.8441ZM12.9003 26.1994C12.7925 26.1994 12.6875 26.2156 12.5851 26.2506L8.94802 27.4845V27.4872C7.32344 28.0395 6.45325 29.8042 7.00287 31.4287C7.28036 32.245 7.87037 32.9186 8.64359 33.3011C9.4195 33.681 10.3113 33.7402 11.1303 33.4627C13.5793 32.6303 14.8886 29.9712 14.0588 27.5222L13.8379 26.8675L13.8352 26.8702C13.7005 26.4688 13.3233 26.1994 12.9003 26.1994Z" fill="white"/>
<path d="M10.0904 39.9989C5.97104 39.9962 2.30992 37.3721 0.98156 33.4738C-0.691508 28.522 1.95686 23.1497 6.90323 21.4662L16.4514 18.2252C17.0279 18.0285 17.6557 18.3383 17.8523 18.9149C18.0463 19.4914 17.7392 20.1191 17.1599 20.3158L7.61176 23.5568C3.82111 24.85 1.78975 28.9666 3.07217 32.7628C3.7026 34.6244 5.04698 36.1574 6.80895 37.0249C8.57092 37.8951 10.605 38.0271 12.4639 37.394C17.079 35.8207 19.5519 30.8069 17.9896 26.1893L17.9626 26.1057H17.9599C17.4076 24.4704 18.162 22.6815 19.7165 21.9379L21.0609 21.294H21.0636C21.104 21.2752 21.1471 21.259 21.1902 21.2428C21.7452 21.0596 22.3487 21.3398 22.5642 21.8867C22.7797 22.4309 22.5292 23.0506 21.9984 23.2931L20.6702 23.9289C20.1206 24.1902 19.8539 24.8207 20.0479 25.3945L20.0748 25.478C22.0334 31.2434 18.9352 37.5263 13.1696 39.485C12.1781 39.8245 11.1382 39.9969 10.0902 39.9996L10.0904 39.9989Z" fill="white"/>
<path d="M16.8039 20.3718C16.2651 20.3745 15.8017 19.9811 15.7155 19.4477C15.6266 18.9143 15.9391 18.397 16.451 18.2246L21.6076 16.4734C21.8851 16.3764 22.1895 16.3953 22.4536 16.5246C22.7176 16.6539 22.9196 16.8829 23.0139 17.1604C23.1082 17.4406 23.0867 17.7423 22.9574 18.0064C22.8254 18.2704 22.5963 18.4698 22.3189 18.5641L17.1623 20.3153H17.1596C17.0464 20.353 16.9251 20.3718 16.8039 20.3718Z" fill="white"/>
</svg>
