<svg width="28" height="28" viewBox="0 0 59 58" fill="currentColor" xmlns="http://www.w3.org/2000/svg">
<path d="M45.7253 23.2157L45.8706 19.4958C45.7013 19.5261 45.526 19.5175 45.3581 19.4687C45.0882 19.3903 44.8573 19.2139 44.7105 18.974C44.6941 18.9473 43.9576 17.7637 42.6701 16.459C41.3747 15.1461 39.5381 13.7279 37.3314 13.2243L45.7253 23.2157ZM45.7253 23.2157L42.2289 21.7956C42.2778 21.706 42.3147 21.6099 42.3381 21.5096C42.3827 21.3182 42.3766 21.1185 42.3206 20.9301L42.3205 20.9299C41.4021 17.8524 38.9783 15.4362 35.3489 13.9279L35.3485 13.9277C34.7832 13.694 34.2074 13.4868 33.6231 13.3067C34.8692 12.9731 36.1093 12.9459 37.3313 13.2243L45.7253 23.2157ZM46.7909 25.9974C47.0821 25.9971 47.3619 25.8841 47.5717 25.682C47.782 25.4794 47.9057 25.2033 47.917 24.9114C47.917 24.9114 47.9171 24.9113 47.9171 24.9113L48.207 17.5179L48.2071 17.5178C48.2151 17.3112 48.1663 17.1063 48.0661 16.9255C47.9659 16.7447 47.818 16.5949 47.6386 16.4924C47.4592 16.39 47.2551 16.3388 47.0486 16.3446C46.8421 16.3503 46.6411 16.4127 46.4677 16.525L45.9802 16.8401C44.7673 15.2121 41.9071 11.9531 37.8457 11.0217C35.0446 10.3784 32.2255 10.9654 29.4766 12.744C29.2797 12.8713 29.1274 13.0568 29.0407 13.2748C28.9539 13.4927 28.9371 13.7323 28.9925 13.9603C29.0479 14.1883 29.1727 14.3934 29.3498 14.5471C29.5269 14.7008 29.7475 14.7954 29.9808 14.8178L29.9811 14.8179C29.9811 14.8179 29.9817 14.8179 29.9829 14.818L29.9883 14.8186L30.0075 14.8207C30.024 14.8226 30.0477 14.8253 30.0782 14.8291C30.1392 14.8367 30.2272 14.8483 30.3389 14.8649C30.5624 14.8982 30.8807 14.9513 31.2676 15.0318C32.0419 15.1928 33.0887 15.4626 34.1995 15.8991C36.3848 16.7578 38.782 18.2474 39.8757 20.7881L39.3354 21.1388L46.7909 25.9974ZM46.368 25.9148C46.5018 25.9689 46.6447 25.997 46.7891 25.9974L39.3352 21.139C39.1618 21.2513 39.0225 21.409 38.9325 21.595C38.8424 21.781 38.8051 21.9883 38.8245 22.1941C38.8439 22.4 38.9193 22.5966 39.0426 22.7625C39.1659 22.9284 39.3323 23.0573 39.5237 23.135C39.5237 23.135 39.5237 23.135 39.5237 23.135L46.3677 25.9147L46.368 25.9148Z"  stroke="white" stroke-width="0.4"/>
<path d="M24.0526 48.2823H24.0525C23.5632 48.2821 23.0746 48.2456 22.5907 48.1732C18.4717 47.5628 15.3652 44.5376 14.0275 43.0097L13.5664 43.3607C13.5664 43.3607 13.5664 43.3607 13.5663 43.3607C13.4021 43.4862 13.2067 43.5641 13.0013 43.5859C12.7958 43.6077 12.5884 43.5726 12.4015 43.4844C12.2146 43.3962 12.0556 43.2584 11.9416 43.0859C11.8277 42.9134 11.7632 42.713 11.7551 42.5064C11.7551 42.5064 11.7551 42.5063 11.7551 42.5063L11.4651 35.1128L11.4651 35.1128C11.4581 34.9317 11.4946 34.7515 11.5716 34.5874C11.6487 34.4234 11.7641 34.2803 11.908 34.1703C12.052 34.0603 12.2203 33.9866 12.3987 33.9554C12.5771 33.9243 12.7604 33.9367 12.9331 33.9915L12.9331 33.9915L19.9722 36.2265C20.1696 36.2888 20.3459 36.4043 20.4821 36.5602C20.6182 36.7161 20.709 36.9065 20.7444 37.1106C20.7798 37.3146 20.7586 37.5244 20.683 37.7172C20.6074 37.9099 20.4804 38.0781 20.3159 38.2035L24.0526 48.2823ZM24.0526 48.2823C26.3836 48.2823 28.6485 47.4455 30.7994 45.8009C30.9857 45.6586 31.123 45.4617 31.1925 45.2377C31.2619 45.0137 31.26 44.7735 31.1871 44.5506C31.1141 44.3277 30.9737 44.133 30.7852 43.9937C30.5967 43.8543 30.3695 43.7771 30.1351 43.773L30.1316 43.9729L30.1358 43.773C30.1032 43.7723 28.1288 43.7216 25.8439 43.024C23.5987 42.3386 21.0933 41.0409 19.8048 38.5937L20.3156 38.2036L24.0526 48.2823ZM14.378 40.3301C14.5268 40.3522 14.6697 40.4039 14.7983 40.4822C14.9267 40.5604 15.0382 40.6635 15.1263 40.7855C15.1529 40.8217 15.9782 41.9389 17.3566 43.1328C18.7505 44.3401 20.692 45.6102 22.931 45.9393L22.931 45.9393C24.171 46.1219 25.4044 45.9975 26.6217 45.5668C26.0262 45.4332 25.437 45.2718 24.8562 45.0831L24.8559 45.083C21.1197 43.8634 18.515 41.6443 17.359 38.6483C17.2873 38.4645 17.2649 38.2651 17.294 38.0699C17.3094 37.9671 17.3387 37.8673 17.381 37.7733L13.7836 36.6313L13.929 40.3527C14.0213 40.329 14.1166 40.317 14.2128 40.3173C14.2681 40.3174 14.3233 40.3216 14.378 40.3301ZM14.378 40.3301C14.3782 40.3301 14.3784 40.3301 14.3786 40.3302L14.3481 40.5278L14.3774 40.33C14.3776 40.33 14.3778 40.33 14.378 40.3301Z"  stroke="white" stroke-width="0.4"/>
<path d="M8.26085 6.46013L8.26077 6.46018C6.28895 7.69786 5.17198 9.4118 5.17198 11.2969C5.17198 13.182 6.28899 14.896 8.26318 16.1337C10.095 17.2845 12.5026 17.9129 15.0394 17.9129C17.5769 17.9129 19.9846 17.2844 21.8186 16.1336L21.8187 16.1336C23.7887 14.8959 24.9069 13.182 24.9069 11.2969C24.9069 9.4116 23.7885 7.70069 21.8165 6.46028L21.8163 6.46016C19.9822 5.30934 17.5716 4.68086 15.0371 4.68086C12.5025 4.68086 10.096 5.30938 8.26085 6.46013ZM7.42798 11.2969C7.42798 10.1649 8.25089 9.0794 9.64671 8.26527C11.0357 7.45513 12.9528 6.94058 15.0394 6.94058C17.1263 6.94058 19.0434 7.45513 20.4323 8.26527C21.8281 9.07939 22.6509 10.1649 22.6509 11.2969C22.6509 12.4289 21.8279 13.5144 20.4321 14.3285C19.0431 15.1386 17.126 15.6532 15.0394 15.6532C12.9528 15.6532 11.0357 15.1386 9.64671 14.3285C8.25089 13.5144 7.42798 12.4289 7.42798 11.2969Z"  stroke="white" stroke-width="0.4"/>
<path d="M6.64071 20.2957L6.64071 20.2957C8.44523 22.2532 11.5912 23.4019 15.0394 23.4019C18.4883 23.4019 21.6336 22.2532 23.4387 20.2957L23.4388 20.2956C24.3934 19.2594 24.9074 18.0461 24.9074 16.7853C24.9074 16.4858 24.7887 16.1985 24.5772 15.9865C24.3657 15.7746 24.0787 15.6555 23.7794 15.6555C23.4801 15.6555 23.1932 15.7746 22.9817 15.9865C22.7702 16.1985 22.6514 16.4858 22.6514 16.7853C22.6514 17.4618 22.3676 18.1262 21.781 18.7629C20.4422 20.2146 17.865 21.1422 15.0394 21.1422C12.2139 21.1422 9.63944 20.2147 8.29825 18.7627C7.71129 18.1261 7.42798 17.4618 7.42798 16.7853C7.42798 16.4858 7.30923 16.1985 7.09774 15.9865C6.88623 15.7746 6.59927 15.6555 6.29998 15.6555C6.00069 15.6555 5.71373 15.7746 5.50222 15.9865C5.29072 16.1985 5.17198 16.4858 5.17198 16.7853C5.17198 18.0454 5.68537 19.2593 6.64071 20.2957Z"  stroke="white" stroke-width="0.4"/>
<path d="M21.8186 27.1064L21.8186 27.1064C23.7905 25.8687 24.9074 24.1542 24.9074 22.2697C24.9074 21.9702 24.7887 21.6828 24.5772 21.4709C24.3657 21.259 24.0787 21.1398 23.7794 21.1398C23.4801 21.1398 23.1932 21.259 22.9817 21.4709C22.7702 21.6828 22.6514 21.9702 22.6514 22.2697C22.6514 23.4017 21.8284 24.4872 20.4324 25.3013C19.0433 26.1115 17.126 26.626 15.0394 26.626C12.9528 26.626 11.0357 26.1115 9.64671 25.3013C8.25089 24.4872 7.42798 23.4017 7.42798 22.2697C7.42798 21.9702 7.30923 21.6828 7.09774 21.4709C6.88623 21.259 6.59927 21.1398 6.29998 21.1398C6.00069 21.1398 5.71373 21.259 5.50222 21.4709C5.29072 21.6828 5.17198 21.9702 5.17198 22.2697C5.17198 24.1542 6.28895 25.8687 8.26309 27.1064C10.0943 28.2573 12.5026 28.8857 15.0394 28.8857C17.5769 28.8857 19.9846 28.2572 21.8186 27.1064Z"  stroke="white" stroke-width="0.4"/>
<path d="M22.9811 23.0701L23.1226 22.9289L22.9811 23.0701C23.1926 23.2821 23.4795 23.4012 23.7788 23.4012C24.0781 23.4012 24.3651 23.2821 24.5766 23.0701L24.435 22.9289L24.5766 23.0701C24.7881 22.8582 24.9068 22.5709 24.9068 22.2713V11.299C24.9068 10.9995 24.7881 10.7121 24.5766 10.5002C24.3651 10.2883 24.0781 10.1691 23.7788 10.1691C23.4795 10.1691 23.1926 10.2883 22.9811 10.5002C22.7696 10.7121 22.6508 10.9995 22.6508 11.299V22.2713C22.6508 22.5709 22.7696 22.8582 22.9811 23.0701Z"  stroke="white" stroke-width="0.4"/>
<path d="M5.50222 23.0701L5.64378 22.9289L5.50222 23.0701C5.71373 23.2821 6.00068 23.4012 6.29998 23.4012C6.59927 23.4012 6.88623 23.2821 7.09774 23.0701L6.95617 22.9289L7.09774 23.0701C7.30923 22.8582 7.42798 22.5709 7.42798 22.2713V11.299C7.42798 10.9995 7.30923 10.7121 7.09774 10.5002C6.88623 10.2883 6.59927 10.1691 6.29998 10.1691C6.00069 10.1691 5.71373 10.2883 5.50222 10.5002C5.29072 10.7121 5.17198 10.9995 5.17198 11.299V22.2713C5.17198 22.5709 5.29072 22.8582 5.50222 23.0701Z"  stroke="white" stroke-width="0.4"/>
<path d="M37.1843 31.0109L37.1842 31.011C35.2124 32.2486 34.0954 33.9626 34.0954 35.8477C34.0954 37.7328 35.2124 39.4467 37.1842 40.6844C39.0155 41.8353 41.4238 42.4637 43.9606 42.4637C46.4974 42.4637 48.9057 41.8352 50.7392 40.6844C52.711 39.4467 53.828 37.7328 53.828 35.8477C53.828 33.9625 52.711 32.2486 50.7368 31.0109C48.9056 29.8601 46.495 29.2316 43.9606 29.2316C41.4259 29.2316 39.0195 29.8602 37.1843 31.0109ZM36.3491 35.8477C36.3491 34.7157 37.172 33.6302 38.5679 32.8161C39.9568 32.0059 41.874 31.4914 43.9606 31.4914C46.0472 31.4914 47.9643 32.0059 49.3533 32.8161C50.7491 33.6302 51.572 34.7157 51.572 35.8477C51.572 36.9797 50.7492 38.0652 49.3535 38.8793C47.9646 39.6894 46.0474 40.204 43.9606 40.204C41.8737 40.204 39.9565 39.6894 38.5676 38.8793C37.1719 38.0652 36.3491 36.9797 36.3491 35.8477Z"  stroke="white" stroke-width="0.4"/>
<path d="M34.0925 41.3322C34.0925 42.5921 34.604 43.8061 35.5613 44.8426C37.3664 46.8 40.5123 47.9488 43.9605 47.9488C47.4089 47.9488 50.5541 46.7982 52.3592 44.8427L52.3592 44.8426C53.3146 43.8062 53.828 42.5923 53.828 41.3322C53.828 41.0327 53.7092 40.7453 53.4977 40.5334C53.2862 40.3215 52.9993 40.2023 52.7 40.2023C52.4007 40.2023 52.1137 40.3215 51.9022 40.5334C51.6907 40.7453 51.572 41.0327 51.572 41.3322C51.572 42.0087 51.2886 42.6731 50.7016 43.3097C49.3628 44.7615 46.7867 45.6891 43.9605 45.6891C41.1345 45.6891 38.56 44.7616 37.2188 43.3096C36.6323 42.6729 36.3485 42.0086 36.3485 41.3322C36.3485 41.0327 36.2298 40.7453 36.0183 40.5334C35.8068 40.3215 35.5198 40.2023 35.2205 40.2023C34.9212 40.2023 34.6343 40.3215 34.4228 40.5334C34.2113 40.7453 34.0925 41.0327 34.0925 41.3322Z"  stroke="white" stroke-width="0.4"/>
<path d="M37.1811 51.6551L37.1813 51.6553C39.0154 52.8061 41.4231 53.4346 43.9605 53.4346C46.4974 53.4346 48.9057 52.8061 50.7392 51.6552L50.7392 51.6552C52.711 50.417 53.828 48.7031 53.828 46.8185C53.828 46.519 53.7092 46.2317 53.4977 46.0197C53.2862 45.8078 52.9993 45.6887 52.7 45.6887C52.4007 45.6887 52.1137 45.8078 51.9022 46.0197C51.6907 46.2317 51.572 46.519 51.572 46.8185C51.572 47.9505 50.7492 49.036 49.3534 49.8502C47.9645 50.6603 46.0474 51.1748 43.9605 51.1748C41.8736 51.1748 39.9564 50.6603 38.5673 49.8502C37.1714 49.036 36.3485 47.9505 36.3485 46.8185C36.3485 46.519 36.2298 46.2317 36.0183 46.0197C35.8068 45.8078 35.5198 45.6887 35.2205 45.6887C34.9212 45.6887 34.6343 45.8078 34.4228 46.0197C34.2113 46.2317 34.0925 46.519 34.0925 46.8185C34.0925 48.7032 35.2114 50.4147 37.1811 51.6551Z"  stroke="white" stroke-width="0.4"/>
<path d="M51.9022 47.617C52.1137 47.8289 52.4007 47.9481 52.7 47.9481C52.9993 47.9481 53.2862 47.8289 53.4977 47.617C53.7092 47.4051 53.828 47.1177 53.828 46.8182V35.8459C53.828 35.5463 53.7092 35.259 53.4977 35.0471C53.2862 34.8352 52.9993 34.716 52.7 34.716C52.4007 34.716 52.1137 34.8352 51.9022 35.0471C51.6907 35.259 51.572 35.5463 51.572 35.8459V46.8182C51.572 47.1177 51.6907 47.4051 51.9022 47.617Z"  stroke="white" stroke-width="0.4"/>
<path d="M34.4233 47.617C34.6348 47.8289 34.9218 47.9481 35.2211 47.9481C35.5204 47.9481 35.8073 47.8289 36.0188 47.617C36.2303 47.4051 36.3491 47.1177 36.3491 46.8182V35.8459C36.3491 35.5463 36.2303 35.259 36.0188 35.0471C35.8073 34.8352 35.5204 34.716 35.2211 34.716C34.9218 34.716 34.6348 34.8352 34.4233 35.0471C34.2118 35.259 34.0931 35.5463 34.0931 35.8459V46.8182C34.0931 47.1177 34.2118 47.4051 34.4233 47.617Z"  stroke="white" stroke-width="0.4"/>
</svg>
