<svg width="28" height="28" viewBox="0 0 28 28" fill="currentColor" xmlns="http://www.w3.org/2000/svg">
<g clip-path="url(#clip0_160_128)">
<path d="M8.16663 24.5C7.52496 24.5 6.97585 24.2717 6.51929 23.8152C6.06196 23.3578 5.83329 22.8083 5.83329 22.1667V7H4.66663V4.66667H10.5V3.5H17.5V4.66667H23.3333V7H22.1666V22.1667C22.1666 22.8083 21.9383 23.3578 21.4818 23.8152C21.0245 24.2717 20.475 24.5 19.8333 24.5H8.16663ZM19.8333 7H8.16663V22.1667H19.8333V7ZM10.5 19.8333H12.8333V9.33333H10.5V19.8333ZM15.1666 19.8333H17.5V9.33333H15.1666V19.8333Z" />
</g>
<defs>
<clipPath id="clip0_160_128">
<rect width="28" height="28"/>
</clipPath>
</defs>
</svg>
