<svg width="28" height="23" viewBox="0 0 28 23" fill="currentColor" stroke="currentColor" xmlns="http://www.w3.org/2000/svg">
<path d="M11.8174 20.6035C11.9113 20.7958 12.0091 20.9835 12.1109 21.1668H1.16675V17.9335C1.16675 17.2908 1.33106 16.6889 1.66476 16.1197C1.99369 15.5586 2.44383 15.1373 3.02369 14.8474L3.0237 14.8474L3.02717 14.8456C4.12694 14.2849 5.3733 13.8073 6.76879 13.4148C8.14064 13.029 9.66102 12.8335 11.3334 12.8335H11.4872C11.4067 13.0563 11.3337 13.2834 11.2683 13.5148L11.2681 13.5154C11.1778 13.8363 11.1021 14.1654 11.041 14.5024C9.53664 14.5258 8.16511 14.7307 6.93102 15.1237L6.93092 15.1238C5.66154 15.5283 4.60765 15.9374 3.77647 16.3529L3.76676 16.3578L3.75726 16.3631C3.48018 16.517 3.25683 16.7339 3.0912 17.0054C2.91821 17.2875 2.83341 17.6008 2.83341 17.9335V19.0002V19.5002H3.33341H11.365C11.4893 19.8721 11.6402 20.2398 11.8173 20.6032L11.8174 20.6035ZM19.4237 20.9021L19.3715 20.641L19.1257 20.5386C18.8714 20.4326 18.6345 20.3224 18.4148 20.208C18.2063 20.0981 17.9883 19.9612 17.7608 19.7958L17.558 19.6483L17.3186 19.7226L15.7635 20.2052L14.8417 18.6381L16.0615 17.5775L16.2669 17.3989L16.2284 17.1294C16.1867 16.8377 16.1667 16.5728 16.1667 16.3335C16.1667 16.0942 16.1867 15.8292 16.2284 15.5375L16.2669 15.2681L16.0615 15.0895L14.8417 14.0289L15.7635 12.4618L17.3186 12.9444L17.558 13.0187L17.7608 12.8712C17.9883 12.7058 18.2062 12.569 18.4147 12.4591C18.6344 12.3447 18.8713 12.2344 19.1257 12.1284L19.3715 12.026L19.4237 11.7649L19.7433 10.1668H21.5902L21.9098 11.7649L21.962 12.026L22.2078 12.1284C22.4566 12.232 22.688 12.3452 22.9025 12.4675C23.1076 12.5849 23.3235 12.7351 23.5501 12.9205L23.766 13.0971L24.0297 13.0062L25.5715 12.4745L26.4958 14.092L25.272 15.1562L25.0609 15.3398L25.1069 15.6157C25.1465 15.8534 25.1667 16.1036 25.1667 16.3668C25.1667 16.63 25.1465 16.8802 25.1069 17.118L25.0609 17.3939L25.272 17.5775L26.4918 18.6381L25.57 20.2052L24.0149 19.7226L23.7755 19.6483L23.5727 19.7958C23.3452 19.9612 23.1272 20.0981 22.9187 20.208C22.699 20.3224 22.4621 20.4326 22.2078 20.5386L21.962 20.641L21.9098 20.9021L21.5902 22.5002H19.7433L19.4237 20.9021ZM22.9046 14.0962L22.904 14.0956C22.2883 13.481 21.5336 13.1668 20.6667 13.1668C19.7999 13.1668 19.0454 13.4811 18.4305 14.0959C17.8149 14.7115 17.5001 15.4664 17.5001 16.3335C17.5001 17.2006 17.8149 17.9555 18.4305 18.571C19.0454 19.1859 19.7999 19.5002 20.6667 19.5002C21.5336 19.5002 22.2883 19.186 22.904 18.5714L22.9046 18.5707C23.5192 17.9551 23.8334 17.2003 23.8334 16.3335C23.8334 15.4666 23.5192 14.7119 22.9046 14.0962ZM14.7465 2.25372L15.1001 1.90016L14.7465 2.25372C15.698 3.20514 16.1667 4.33382 16.1667 5.66683C16.1667 6.99983 15.698 8.12852 14.7465 9.07994C13.7951 10.0314 12.6664 10.5002 11.3334 10.5002C10.0004 10.5002 8.87173 10.0314 7.9203 9.07994C6.96888 8.12852 6.50008 6.99983 6.50008 5.66683C6.50008 4.33383 6.96888 3.20514 7.9203 2.25372C8.87173 1.30229 10.0004 0.833496 11.3334 0.833496C12.6664 0.833496 13.7951 1.30229 14.7465 2.25372ZM11.3334 8.8335C12.2005 8.8335 12.9554 8.51865 13.571 7.90305C14.1859 7.28816 14.5001 6.5337 14.5001 5.66683C14.5001 4.79996 14.1859 4.0455 13.571 3.43061C12.9554 2.81501 12.2005 2.50016 11.3334 2.50016C10.4664 2.50016 9.7119 2.81496 9.09712 3.43069C8.4815 4.04544 8.16675 4.79986 8.16675 5.66683C8.16675 6.53383 8.48152 7.28828 9.09719 7.90305C9.71196 8.51872 10.4664 8.8335 11.3334 8.8335Z"/>
</svg>
