<svg width="57" height="56" viewBox="0 0 57 56" fill="none" xmlns="http://www.w3.org/2000/svg">
<g clip-path="url(#clip0_1311_6131)">
<path d="M11.224 29.3646V33.0833H7.50523V28.6673C7.50523 27.0404 8.82229 25.6458 10.4492 25.6458H26.099V20.6875H23C22.3028 20.6875 21.683 20.4551 21.2181 19.9902C20.7533 19.5254 20.5209 18.9056 20.5209 18.2083V10.7708C20.5209 9.45377 21.6055 8.29167 23 8.29167H32.9167C34.2337 8.29167 35.3959 9.45377 35.3959 10.7708V18.2083C35.3959 19.6029 34.2337 20.6875 32.9167 20.6875H29.8177V25.6458H45.39C47.0169 25.6458 48.4115 27.0404 48.4115 28.6673V33.0833H44.6927V29.3646H29.8177V33.0833H26.099V29.3646H11.224ZM24.2396 16.9687H31.6771V12.0104H24.2396V16.9687ZM50.2709 35.5625C51.5879 35.5625 52.75 36.7246 52.75 38.0417V45.4792C52.75 46.8737 51.5879 47.9583 50.2709 47.9583H42.8334C41.4388 47.9583 40.3542 46.8737 40.3542 45.4792V38.0417C40.3542 36.7246 41.4388 35.5625 42.8334 35.5625H50.2709ZM49.0313 44.2396V39.2812H44.0729V44.2396H49.0313ZM31.6771 35.5625C32.9942 35.5625 34.1563 36.7246 34.1563 38.0417V45.4792C34.1563 46.8737 32.9942 47.9583 31.6771 47.9583H24.2396C22.8451 47.9583 21.7604 46.8737 21.7604 45.4792V38.0417C21.7604 36.7246 22.8451 35.5625 24.2396 35.5625H31.6771ZM30.4375 44.2396V39.2812H25.4792V44.2396H30.4375ZM13.0834 35.5625C14.4004 35.5625 15.5625 36.7246 15.5625 38.0417V45.4792C15.5625 46.8737 14.4004 47.9583 13.0834 47.9583H5.64585C4.25132 47.9583 3.16669 46.8737 3.16669 45.4792V38.0417C3.16669 36.7246 4.25132 35.5625 5.64585 35.5625H13.0834ZM11.8438 44.2396V39.2812H6.88544V44.2396H11.8438Z" fill="white"/>
</g>
<defs>
<clipPath id="clip0_1311_6131">
<rect width="56" height="56" fill="white" transform="translate(0.166687)"/>
</clipPath>
</defs>
</svg>
