<svg width="28" height="28" viewBox="0 0 57 56" fill="currentColor" xmlns="http://www.w3.org/2000/svg">
<path d="M43.5182 26.653C43.5957 27.6602 43.5957 28.6673 43.5182 29.597L45.9974 31.069C46.6947 31.4564 47.082 32.3086 46.8496 33.1608C45.9974 36.4147 44.2155 39.3587 41.8913 41.7604C41.2715 42.3027 40.3418 42.4577 39.6445 42.0703L37.1654 40.5983C36.3906 41.2181 35.5384 41.6829 34.6087 42.0703V44.9368C34.6087 45.7891 34.0664 46.4863 33.2142 46.7188C30.0378 47.571 26.5514 47.571 23.375 46.7188C22.5228 46.4863 21.9805 45.7891 21.9805 44.9368V42.0703C21.0508 41.6829 20.1986 41.2181 19.4238 40.5983L16.9447 42.0703C16.2474 42.4577 15.3177 42.3027 14.6979 41.7604C12.3737 39.3587 10.5918 36.4147 9.73958 33.1608C9.50716 32.3086 9.89453 31.4564 10.5918 31.069L13.071 29.597C12.9935 29.1322 12.9935 28.6673 12.9935 28.2025C12.9935 27.6602 12.9935 27.1953 13.071 26.653L10.5918 25.2585C9.89453 24.8711 9.50716 24.0189 9.73958 23.1667C10.5918 19.9128 12.3737 16.9687 14.6979 14.5671C15.3177 14.0247 16.2474 13.8698 16.9447 14.2572L19.4238 15.7292C20.1986 15.1094 21.0508 14.6445 21.9805 14.2572V11.3906C21.9805 10.5384 22.5228 9.84114 23.375 9.60872C26.5514 8.75651 30.0378 8.75651 33.2142 9.60872C34.0664 9.84114 34.6087 10.5384 34.6087 11.3906V14.2572C35.5384 14.6445 36.3906 15.1094 37.1654 15.7292L39.6445 14.2572C40.3418 13.8698 41.2715 14.0247 41.8913 14.5671C44.2155 16.9687 45.9974 19.9128 46.8496 23.1667C47.082 24.0189 46.6947 24.8711 45.9974 25.2585L43.5182 26.653ZM39.4121 31.6113C40.0319 28.3574 40.0319 27.9701 39.4121 24.7161L42.821 22.7793C42.2012 21.1523 41.349 19.6029 40.1868 18.2858L36.778 20.2227C34.3763 18.1309 33.9889 17.8984 30.89 16.8138V12.8626C30.0378 12.7077 29.1855 12.6302 28.3333 12.6302C27.4036 12.6302 26.5514 12.7077 25.6992 12.8626V16.8138C22.6003 17.8984 22.2904 18.1309 19.8112 20.2227L16.4023 18.2858C15.2402 19.6029 14.388 21.1523 13.7682 22.7793L17.1771 24.7161C16.5573 27.9701 16.5573 28.3574 17.1771 31.6113L13.7682 33.5482C14.388 35.1751 15.2402 36.7246 16.4023 38.0417L19.8112 36.1048C22.2129 38.1966 22.6003 38.429 25.6992 39.5137V43.4648C26.5514 43.6198 27.4036 43.6973 28.2559 43.6973C29.1855 43.6973 30.0378 43.6198 30.89 43.4648V39.5137C33.9889 38.429 34.2988 38.1966 36.778 36.1048L40.1868 38.0417C41.349 36.7246 42.2012 35.1751 42.821 33.5482L39.4121 31.6113ZM28.3333 20.6875C32.362 20.6875 35.7708 24.0964 35.7708 28.125C35.7708 32.2311 32.362 35.5625 28.3333 35.5625C24.2272 35.5625 20.8958 32.2311 20.8958 28.125C20.8958 24.0964 24.2272 20.6875 28.3333 20.6875ZM28.3333 31.8437C30.3477 31.8437 32.0521 30.2168 32.0521 28.125C32.0521 26.1107 30.3477 24.4062 28.3333 24.4062C26.2415 24.4062 24.6146 26.1107 24.6146 28.125C24.6146 30.2168 26.2415 31.8437 28.3333 31.8437Z"/>
</svg>
