<svg width="40" height="44" viewBox="0 0 40 44" fill="none" xmlns="http://www.w3.org/2000/svg">
<path d="M9.33335 43.6614V30.6614H5.86669C4.45835 30.6614 3.23924 30.1465 2.20935 29.1166C1.18091 28.0882 0.666687 26.8698 0.666687 25.4614C0.666687 24.4142 0.946909 23.4479 1.50735 22.5625C2.06635 21.6784 2.83335 21.0198 3.80835 20.5865L18 14.3031V12.8948C16.7361 12.4615 15.6976 11.6937 14.8844 10.5916C14.0726 9.49095 13.6667 8.23645 13.6667 6.82812C13.6667 4.98646 14.29 3.44235 15.5365 2.19579C16.7816 0.95068 18.325 0.328125 20.1667 0.328125C21.9722 0.328125 23.507 0.960069 24.7709 2.22396C26.0347 3.48785 26.6667 5.02257 26.6667 6.82812H22.3334C22.3334 6.21423 22.1261 5.69929 21.7115 5.28329C21.2955 4.86873 20.7806 4.66146 20.1667 4.66146C19.5528 4.66146 19.0386 4.86873 18.624 5.28329C18.208 5.69929 18 6.21423 18 6.82812C18 7.44201 18.208 7.95695 18.624 8.37295C19.0386 8.78751 19.5528 8.99479 20.1667 8.99479C20.7806 8.99479 21.2955 9.20207 21.7115 9.61662C22.1261 10.0326 22.3334 10.5476 22.3334 11.1615V14.3031L36.525 20.5865C37.5 21.0198 38.2677 21.6784 38.8282 22.5625C39.3872 23.4479 39.6667 24.4142 39.6667 25.4614C39.6667 26.8698 39.1525 28.0882 38.124 29.1166C37.0941 30.1465 35.875 30.6614 34.4667 30.6614H31V43.6614H9.33335ZM5.86669 26.3281H9.33335V24.1614H31V26.3281H34.4667C34.7917 26.3281 35.0177 26.2198 35.1449 26.0031C35.2705 25.7864 35.3334 25.5698 35.3334 25.3531C35.3334 25.1726 35.2886 25.0187 35.199 24.8916C35.108 24.7659 34.9722 24.667 34.7917 24.5948L20.1667 18.0948L5.54169 24.5948C5.36113 24.667 5.22535 24.7659 5.13435 24.8916C5.0448 25.0187 5.00002 25.1726 5.00002 25.3531C5.00002 25.642 5.07224 25.8767 5.21669 26.0573C5.36113 26.2378 5.5778 26.3281 5.86669 26.3281ZM13.6667 39.3281H26.6667V28.4948H13.6667V39.3281Z" fill="white"/>
</svg>
