<svg width="45" height="48" viewBox="0 0 45 48" fill="none" xmlns="http://www.w3.org/2000/svg">
<path d="M2.18753 47H42.8125C43.0943 47 43.3646 46.8881 43.5638 46.6888C43.7631 46.4895 43.875 46.2193 43.875 45.9375V42.6875C43.875 42.4057 43.7631 42.1355 43.5638 41.9362V41.9362C43.3646 41.7369 43.0943 41.625 42.8125 41.625H2.18753C1.90574 41.625 1.63549 41.7369 1.43623 41.9362C1.23697 42.1355 1.12503 42.4057 1.12503 42.6875V45.9375C1.12503 46.2193 1.23697 46.4895 1.43623 46.6888C1.63549 46.8881 1.90574 47 2.18753 47ZM41.75 43.75V44.875H3.25003V43.75H41.75Z" fill="white" stroke="white" stroke-width="0.5"/>
<path d="M2.18753 43.75H42.8125C43.0943 43.75 43.3646 43.6381 43.5638 43.4388C43.7631 43.2395 43.875 42.9693 43.875 42.6875V39.4375C43.875 38.7247 43.5919 38.0412 43.0879 37.5372C42.5839 37.0331 41.9003 36.75 41.1875 36.75H3.81253C3.09976 36.75 2.41618 37.0331 1.91218 37.5372C1.40818 38.0412 1.12503 38.7247 1.12503 39.4375V42.6875C1.12503 42.9693 1.23697 43.2395 1.43623 43.4388C1.63549 43.6381 1.90574 43.75 2.18753 43.75ZM41.75 39.4375V41.625H3.25003V39.4375C3.25003 39.2883 3.30929 39.1452 3.41478 39.0398C3.52027 38.9343 3.66335 38.875 3.81253 38.875H41.1875C41.3367 38.875 41.4798 38.9343 41.5853 39.0398C41.6908 39.1452 41.75 39.2883 41.75 39.4375Z" fill="white" stroke="white" stroke-width="0.5"/>
<path d="M27.375 38.875H40.375C40.6568 38.875 40.9271 38.7631 41.1263 38.5638C41.3256 38.3645 41.4375 38.0943 41.4375 37.8125V15.0625C41.4375 13.9188 40.9832 12.8219 40.1744 12.0131C39.3657 11.2044 38.2688 10.75 37.125 10.75H7.87503C6.73128 10.75 5.63438 11.2044 4.82563 12.0131C4.01688 12.8219 3.56253 13.9188 3.56253 15.0625V24.8125C3.56253 25.5253 3.84568 26.2088 4.34968 26.7128C4.85368 27.2169 5.53726 27.5 6.25003 27.5H14.375C15.0878 27.5 15.7714 27.2169 16.2754 26.7128C16.7794 26.2088 17.0625 25.5253 17.0625 24.8125C17.0625 24.6633 17.1218 24.5202 17.2273 24.4148C17.3328 24.3093 17.4758 24.25 17.625 24.25H25.75C25.8992 24.25 26.0423 24.3093 26.1478 24.4148C26.2533 24.5202 26.3125 24.6633 26.3125 24.8125V37.8125C26.3125 38.0943 26.4245 38.3645 26.6237 38.5638C26.823 38.7631 27.0932 38.875 27.375 38.875ZM39.3125 15.0625V36.75H28.4375V24.8125C28.4375 24.0997 28.1544 23.4162 27.6504 22.9122C27.1464 22.4081 26.4628 22.125 25.75 22.125H17.625C16.9123 22.125 16.2287 22.4081 15.7247 22.9122C15.2207 23.4162 14.9375 24.0997 14.9375 24.8125C14.9375 24.9617 14.8783 25.1048 14.7728 25.2102C14.6673 25.3157 14.5242 25.375 14.375 25.375H6.25003C6.10085 25.375 5.95777 25.3157 5.85228 25.2102C5.74679 25.1048 5.68753 24.9617 5.68753 24.8125V15.0625C5.68753 14.4823 5.918 13.9259 6.32823 13.5157C6.73847 13.1055 7.29487 12.875 7.87503 12.875H37.125C37.7052 12.875 38.2616 13.1055 38.6718 13.5157C39.0821 13.9259 39.3125 14.4823 39.3125 15.0625Z" fill="white" stroke="white" stroke-width="0.5"/>
<path d="M7.87503 30.75H12.75C13.4628 30.75 14.1464 30.4669 14.6504 29.9628C15.1544 29.4588 15.4375 28.7753 15.4375 28.0625V26.4375C15.4375 26.1557 15.3256 25.8855 15.1263 25.6862C14.9271 25.4869 14.6568 25.375 14.375 25.375H6.25003C5.96824 25.375 5.69799 25.4869 5.49873 25.6862C5.29947 25.8855 5.18753 26.1557 5.18753 26.4375V28.0625C5.18753 28.7753 5.47068 29.4588 5.97468 29.9628C6.47868 30.4669 7.16226 30.75 7.87503 30.75ZM7.31253 28.0625V27.5H13.3125V28.0625C13.3125 28.2117 13.2533 28.3548 13.1478 28.4602C13.0423 28.5657 12.8992 28.625 12.75 28.625H7.87503C7.72585 28.625 7.58277 28.5657 7.47728 28.4602C7.37179 28.3548 7.31253 28.2117 7.31253 28.0625Z" fill="white" stroke="white" stroke-width="0.5"/>
<path d="M31.4791 21.8982C32.1883 22.3721 33.0221 22.625 33.875 22.625C35.0188 22.625 36.1157 22.1707 36.9244 21.3619C37.7332 20.5531 38.1875 19.4562 38.1875 18.3125C38.1875 17.4596 37.9346 16.6258 37.4607 15.9166C36.9869 15.2074 36.3134 14.6547 35.5254 14.3283C34.7373 14.0019 33.8702 13.9165 33.0337 14.0829C32.1972 14.2493 31.4287 14.66 30.8256 15.2631C30.2225 15.8662 29.8118 16.6346 29.6454 17.4712C29.479 18.3077 29.5644 19.1748 29.8908 19.9628C30.2172 20.7508 30.7699 21.4244 31.4791 21.8982ZM32.6597 16.4937C33.0195 16.2533 33.4424 16.125 33.875 16.125C34.4552 16.125 35.0116 16.3555 35.4218 16.7657C35.8321 17.1759 36.0625 17.7323 36.0625 18.3125C36.0625 18.7451 35.9342 19.1681 35.6939 19.5278C35.4535 19.8875 35.1119 20.1679 34.7122 20.3335C34.3124 20.4991 33.8726 20.5424 33.4483 20.458C33.0239 20.3736 32.6342 20.1652 32.3282 19.8593C32.0223 19.5534 31.814 19.1636 31.7296 18.7393C31.6452 18.3149 31.6885 17.8751 31.854 17.4754C32.0196 17.0757 32.3 16.734 32.6597 16.4937Z" fill="white" stroke="white" stroke-width="0.5"/>
<path d="M31.4375 34H36.3125C36.5943 34 36.8646 33.8881 37.0638 33.6888C37.2631 33.4895 37.375 33.2193 37.375 32.9375V24.8125C37.375 24.5307 37.2631 24.2605 37.0638 24.0612C36.8646 23.8619 36.5943 23.75 36.3125 23.75H31.4375C31.1557 23.75 30.8855 23.8619 30.6862 24.0612C30.487 24.2605 30.375 24.5307 30.375 24.8125V32.9375C30.375 33.2193 30.487 33.4895 30.6862 33.6888C30.8855 33.8881 31.1557 34 31.4375 34ZM35.25 25.875V31.875H32.5V25.875H35.25Z" fill="white" stroke="white" stroke-width="0.5"/>
<path d="M7.87503 30.75H12.75C13.4628 30.75 14.1464 30.4669 14.6504 29.9628C15.1544 29.4588 15.4375 28.7753 15.4375 28.0625V26.4375C15.4375 26.1557 15.3256 25.8855 15.1263 25.6862C14.9271 25.4869 14.6568 25.375 14.375 25.375H6.25003C5.96824 25.375 5.69799 25.4869 5.49873 25.6862C5.29947 25.8855 5.18753 26.1557 5.18753 26.4375V28.0625C5.18753 28.7753 5.47068 29.4588 5.97468 29.9628C6.47868 30.4669 7.16226 30.75 7.87503 30.75ZM7.31253 28.0625V27.5H13.3125V28.0625C13.3125 28.2117 13.2533 28.3548 13.1478 28.4602C13.0423 28.5657 12.8992 28.625 12.75 28.625H7.87503C7.72585 28.625 7.58277 28.5657 7.47728 28.4602C7.37179 28.3548 7.31253 28.2117 7.31253 28.0625Z" fill="white" stroke="white" stroke-width="0.5"/>
<path d="M9.56123 35.3138C9.76049 35.5131 10.0307 35.625 10.3125 35.625C10.5943 35.625 10.8646 35.5131 11.0638 35.3138C11.2631 35.1145 11.375 34.8443 11.375 34.5625V29.6875C11.375 29.4057 11.2631 29.1355 11.0638 28.9362C10.8646 28.7369 10.5943 28.625 10.3125 28.625C10.0307 28.625 9.76049 28.7369 9.56123 28.9362C9.36197 29.1355 9.25003 29.4057 9.25003 29.6875V34.5625C9.25003 34.8443 9.36197 35.1145 9.56123 35.3138Z" fill="white" stroke="white" stroke-width="0.5"/>
<path d="M13.5625 12.875H20.0625C20.3443 12.875 20.6146 12.7631 20.8138 12.5638C21.0131 12.3645 21.125 12.0943 21.125 11.8125V8.5625C21.125 8.28071 21.0131 8.01046 20.8138 7.8112C20.6146 7.61194 20.3443 7.5 20.0625 7.5H13.5625C13.2807 7.5 13.0105 7.61194 12.8112 7.8112C12.612 8.01046 12.5 8.28071 12.5 8.5625V11.8125C12.5 12.0943 12.612 12.3645 12.8112 12.5638C13.0105 12.7631 13.2807 12.875 13.5625 12.875ZM19 9.625V10.75H14.625V9.625H19Z" fill="white" stroke="white" stroke-width="0.5"/>
<path d="M33.875 9.625H35.5C36.2128 9.625 36.8964 9.34185 37.4004 8.83785C37.9044 8.33385 38.1875 7.65027 38.1875 6.9375V3.6875C38.1875 2.97473 37.9044 2.29115 37.4004 1.78715C36.8964 1.28315 36.2128 1 35.5 1H33.875C33.1623 1 32.4787 1.28315 31.9747 1.78715C31.4707 2.29115 31.1875 2.97473 31.1875 3.6875V6.9375C31.1875 7.65027 31.4707 8.33385 31.9747 8.83785C32.4787 9.34185 33.1623 9.625 33.875 9.625ZM33.4773 3.28975C33.5828 3.18426 33.7258 3.125 33.875 3.125H35.5C35.6492 3.125 35.7923 3.18426 35.8978 3.28975C36.0033 3.39524 36.0625 3.53832 36.0625 3.6875V6.9375C36.0625 7.08668 36.0033 7.22976 35.8978 7.33525C35.7923 7.44074 35.6492 7.5 35.5 7.5H33.875C33.7258 7.5 33.5828 7.44074 33.4773 7.33525C33.3718 7.22976 33.3125 7.08668 33.3125 6.9375V3.6875C33.3125 3.53832 33.3718 3.39524 33.4773 3.28975Z" fill="white" stroke="white" stroke-width="0.5"/>
<path d="M33.9362 12.5638C34.1355 12.7631 34.4057 12.875 34.6875 12.875C34.9693 12.875 35.2396 12.7631 35.4388 12.5638C35.6381 12.3645 35.75 12.0943 35.75 11.8125V8.5625C35.75 8.28071 35.6381 8.01046 35.4388 7.8112C35.2396 7.61194 34.9693 7.5 34.6875 7.5C34.4057 7.5 34.1355 7.61194 33.9362 7.8112C33.737 8.01046 33.625 8.28071 33.625 8.5625V11.8125C33.625 12.0943 33.737 12.3645 33.9362 12.5638Z" fill="white" stroke="white" stroke-width="0.5"/>
<path d="M4.62503 24.25H7.87503C8.5878 24.25 9.27138 23.9669 9.77538 23.4628C10.2794 22.9588 10.5625 22.2753 10.5625 21.5625V16.6875C10.5625 15.9747 10.2794 15.2912 9.77538 14.7872C9.27138 14.2831 8.5878 14 7.87503 14H4.62503C4.34324 14 4.07299 14.1119 3.87373 14.3112C3.67447 14.5105 3.56253 14.7807 3.56253 15.0625V23.1875C3.56253 23.4693 3.67447 23.7395 3.87373 23.9388C4.07299 24.1381 4.34324 24.25 4.62503 24.25ZM7.87503 22.125H5.68753V16.125H7.87503C8.02422 16.125 8.16729 16.1843 8.27278 16.2898C8.37827 16.3952 8.43753 16.5383 8.43753 16.6875V21.5625C8.43753 21.7117 8.37827 21.8548 8.27278 21.9602C8.16729 22.0657 8.02422 22.125 7.87503 22.125Z" fill="white" stroke="white" stroke-width="0.5"/>
</svg>
